<?xml version="1.0" encoding="UTF-8"?>
<svg id="Layer_1" data-name="Layer 1" xmlns="http://www.w3.org/2000/svg" viewBox="0 0 1305.7647 730.4566">
  <line x1="5.1001" y1="10.0316" x2="5.1008" y2=".0316" style="fill: none; stroke: #429cd6; stroke-miterlimit: 10;"/>
  <line x1="10.1059" y1="5.0291" x2=".1059" y2="5.0283" style="fill: none; stroke: #429cd6; stroke-miterlimit: 10;"/>
  <line x1="5.0162" y1="154.1274" x2="5.017" y2="144.1274" style="fill: none; stroke: #429cd6; stroke-miterlimit: 10;"/>
  <line x1="10.022" y1="149.1249" x2=".022" y2="149.1241" style="fill: none; stroke: #429cd6; stroke-miterlimit: 10;"/>
  <line x1="5.0829" y1="298.0214" x2="5.0837" y2="288.0214" style="fill: none; stroke: #429cd6; stroke-miterlimit: 10;"/>
  <line x1="10.0887" y1="293.0188" x2=".0887" y2="293.018" style="fill: none; stroke: #429cd6; stroke-miterlimit: 10;"/>
  <line x1="4.999" y1="442.1172" x2="4.9998" y2="432.1172" style="fill: none; stroke: #429cd6; stroke-miterlimit: 10;"/>
  <line x1="10.0048" y1="437.1146" x2=".0048" y2="437.1138" style="fill: none; stroke: #429cd6; stroke-miterlimit: 10;"/>
  <line x1="5.0781" y1="586.0109" x2="5.0789" y2="576.0109" style="fill: none; stroke: #429cd6; stroke-miterlimit: 10;"/>
  <line x1="10.0839" y1="581.0083" x2=".0839" y2="581.0075" style="fill: none; stroke: #429cd6; stroke-miterlimit: 10;"/>
  <line x1="4.9942" y1="730.1067" x2="4.995" y2="720.1067" style="fill: none; stroke: #429cd6; stroke-miterlimit: 10;"/>
  <line x1="10" y1="725.1041" x2="0" y2="725.1033" style="fill: none; stroke: #429cd6; stroke-miterlimit: 10;"/>
  <line x1="220.8197" y1="10.2389" x2="220.8205" y2=".2389" style="fill: none; stroke: #429cd6; stroke-miterlimit: 10;"/>
  <line x1="225.8255" y1="5.2363" x2="215.8255" y2="5.2355" style="fill: none; stroke: #429cd6; stroke-miterlimit: 10;"/>
  <line x1="220.7358" y1="154.3347" x2="220.7366" y2="144.3347" style="fill: none; stroke: #429cd6; stroke-miterlimit: 10;"/>
  <line x1="225.7416" y1="149.3322" x2="215.7416" y2="149.3314" style="fill: none; stroke: #429cd6; stroke-miterlimit: 10;"/>
  <line x1="220.8026" y1="298.2287" x2="220.8034" y2="288.2287" style="fill: none; stroke: #429cd6; stroke-miterlimit: 10;"/>
  <line x1="225.8084" y1="293.2261" x2="215.8084" y2="293.2253" style="fill: none; stroke: #429cd6; stroke-miterlimit: 10;"/>
  <line x1="220.7187" y1="442.3245" x2="220.7195" y2="432.3245" style="fill: none; stroke: #429cd6; stroke-miterlimit: 10;"/>
  <line x1="225.7245" y1="437.3219" x2="215.7245" y2="437.3211" style="fill: none; stroke: #429cd6; stroke-miterlimit: 10;"/>
  <line x1="220.7978" y1="586.2182" x2="220.7986" y2="576.2182" style="fill: none; stroke: #429cd6; stroke-miterlimit: 10;"/>
  <line x1="225.8036" y1="581.2156" x2="215.8036" y2="581.2148" style="fill: none; stroke: #429cd6; stroke-miterlimit: 10;"/>
  <line x1="220.7139" y1="730.314" x2="220.7147" y2="720.314" style="fill: none; stroke: #429cd6; stroke-miterlimit: 10;"/>
  <line x1="225.7197" y1="725.3114" x2="215.7197" y2="725.3106" style="fill: none; stroke: #429cd6; stroke-miterlimit: 10;"/>
  <line x1="436.6086" y1="10.1547" x2="436.6093" y2=".1547" style="fill: none; stroke: #429cd6; stroke-miterlimit: 10;"/>
  <line x1="441.6144" y1="5.1521" x2="431.6144" y2="5.1513" style="fill: none; stroke: #429cd6; stroke-miterlimit: 10;"/>
  <line x1="436.5247" y1="154.2505" x2="436.5255" y2="144.2505" style="fill: none; stroke: #429cd6; stroke-miterlimit: 10;"/>
  <line x1="441.5305" y1="149.2479" x2="431.5305" y2="149.2471" style="fill: none; stroke: #429cd6; stroke-miterlimit: 10;"/>
  <line x1="436.5914" y1="298.1444" x2="436.5922" y2="288.1444" style="fill: none; stroke: #429cd6; stroke-miterlimit: 10;"/>
  <line x1="441.5972" y1="293.1419" x2="431.5972" y2="293.1411" style="fill: none; stroke: #429cd6; stroke-miterlimit: 10;"/>
  <line x1="436.5075" y1="442.2402" x2="436.5083" y2="432.2402" style="fill: none; stroke: #429cd6; stroke-miterlimit: 10;"/>
  <line x1="441.5133" y1="437.2377" x2="431.5133" y2="437.2369" style="fill: none; stroke: #429cd6; stroke-miterlimit: 10;"/>
  <line x1="436.5866" y1="586.1339" x2="436.5874" y2="576.1339" style="fill: none; stroke: #429cd6; stroke-miterlimit: 10;"/>
  <line x1="441.5924" y1="581.1314" x2="431.5924" y2="581.1306" style="fill: none; stroke: #429cd6; stroke-miterlimit: 10;"/>
  <line x1="436.5027" y1="730.2297" x2="436.5035" y2="720.2297" style="fill: none; stroke: #429cd6; stroke-miterlimit: 10;"/>
  <line x1="441.5085" y1="725.2272" x2="431.5085" y2="725.2264" style="fill: none; stroke: #429cd6; stroke-miterlimit: 10;"/>
  <line x1="652.3282" y1="10.3619" x2="652.329" y2=".3619" style="fill: none; stroke: #429cd6; stroke-miterlimit: 10;"/>
  <line x1="657.334" y1="5.3594" x2="647.334" y2="5.3586" style="fill: none; stroke: #429cd6; stroke-miterlimit: 10;"/>
  <line x1="652.2443" y1="154.4578" x2="652.2451" y2="144.4578" style="fill: none; stroke: #429cd6; stroke-miterlimit: 10;"/>
  <line x1="657.2501" y1="149.4552" x2="647.2501" y2="149.4544" style="fill: none; stroke: #429cd6; stroke-miterlimit: 10;"/>
  <line x1="652.3111" y1="298.3517" x2="652.3119" y2="288.3517" style="fill: none; stroke: #429cd6; stroke-miterlimit: 10;"/>
  <line x1="657.3169" y1="293.3491" x2="647.3169" y2="293.3483" style="fill: none; stroke: #429cd6; stroke-miterlimit: 10;"/>
  <line x1="652.2272" y1="442.4475" x2="652.228" y2="432.4475" style="fill: none; stroke: #429cd6; stroke-miterlimit: 10;"/>
  <line x1="657.233" y1="437.4449" x2="647.233" y2="437.4442" style="fill: none; stroke: #429cd6; stroke-miterlimit: 10;"/>
  <line x1="652.3063" y1="586.3412" x2="652.3071" y2="576.3412" style="fill: none; stroke: #429cd6; stroke-miterlimit: 10;"/>
  <line x1="657.3121" y1="581.3386" x2="647.3121" y2="581.3378" style="fill: none; stroke: #429cd6; stroke-miterlimit: 10;"/>
  <line x1="652.2224" y1="730.437" x2="652.2232" y2="720.437" style="fill: none; stroke: #429cd6; stroke-miterlimit: 10;"/>
  <line x1="657.2282" y1="725.4344" x2="647.2282" y2="725.4337" style="fill: none; stroke: #429cd6; stroke-miterlimit: 10;"/>
  <line x1="868.6941" y1="10.0724" x2="868.6949" y2=".0724" style="fill: none; stroke: #429cd6; stroke-miterlimit: 10;"/>
  <line x1="873.6999" y1="5.0699" x2="863.6999" y2="5.0691" style="fill: none; stroke: #429cd6; stroke-miterlimit: 10;"/>
  <line x1="868.6102" y1="154.1683" x2="868.611" y2="144.1683" style="fill: none; stroke: #429cd6; stroke-miterlimit: 10;"/>
  <line x1="873.616" y1="149.1657" x2="863.616" y2="149.1649" style="fill: none; stroke: #429cd6; stroke-miterlimit: 10;"/>
  <line x1="868.677" y1="298.0622" x2="868.6777" y2="288.0622" style="fill: none; stroke: #429cd6; stroke-miterlimit: 10;"/>
  <line x1="873.6828" y1="293.0596" x2="863.6828" y2="293.0588" style="fill: none; stroke: #429cd6; stroke-miterlimit: 10;"/>
  <line x1="868.5931" y1="442.158" x2="868.5939" y2="432.158" style="fill: none; stroke: #429cd6; stroke-miterlimit: 10;"/>
  <line x1="873.5989" y1="437.1555" x2="863.5989" y2="437.1547" style="fill: none; stroke: #429cd6; stroke-miterlimit: 10;"/>
  <line x1="868.6722" y1="586.0517" x2="868.673" y2="576.0517" style="fill: none; stroke: #429cd6; stroke-miterlimit: 10;"/>
  <line x1="873.678" y1="581.0491" x2="863.678" y2="581.0483" style="fill: none; stroke: #429cd6; stroke-miterlimit: 10;"/>
  <line x1="868.5883" y1="730.1475" x2="868.5891" y2="720.1475" style="fill: none; stroke: #429cd6; stroke-miterlimit: 10;"/>
  <line x1="873.5941" y1="725.145" x2="863.5941" y2="725.1442" style="fill: none; stroke: #429cd6; stroke-miterlimit: 10;"/>
  <line x1="1084.4137" y1="10.2797" x2="1084.4145" y2=".2797" style="fill: none; stroke: #429cd6; stroke-miterlimit: 10;"/>
  <line x1="1089.4195" y1="5.2772" x2="1079.4195" y2="5.2764" style="fill: none; stroke: #429cd6; stroke-miterlimit: 10;"/>
  <line x1="1084.3298" y1="154.3755" x2="1084.3306" y2="144.3755" style="fill: none; stroke: #429cd6; stroke-miterlimit: 10;"/>
  <line x1="1089.3357" y1="149.373" x2="1079.3357" y2="149.3722" style="fill: none; stroke: #429cd6; stroke-miterlimit: 10;"/>
  <line x1="1084.3966" y1="298.2695" x2="1084.3974" y2="288.2695" style="fill: none; stroke: #429cd6; stroke-miterlimit: 10;"/>
  <line x1="1089.4024" y1="293.2669" x2="1079.4024" y2="293.2661" style="fill: none; stroke: #429cd6; stroke-miterlimit: 10;"/>
  <line x1="1084.3127" y1="442.3653" x2="1084.3135" y2="432.3653" style="fill: none; stroke: #429cd6; stroke-miterlimit: 10;"/>
  <line x1="1089.3185" y1="437.3627" x2="1079.3185" y2="437.3619" style="fill: none; stroke: #429cd6; stroke-miterlimit: 10;"/>
  <line x1="1084.3918" y1="586.259" x2="1084.3926" y2="576.259" style="fill: none; stroke: #429cd6; stroke-miterlimit: 10;"/>
  <line x1="1089.3976" y1="581.2564" x2="1079.3976" y2="581.2556" style="fill: none; stroke: #429cd6; stroke-miterlimit: 10;"/>
  <line x1="1084.3079" y1="730.3548" x2="1084.3087" y2="720.3548" style="fill: none; stroke: #429cd6; stroke-miterlimit: 10;"/>
  <line x1="1089.3137" y1="725.3522" x2="1079.3137" y2="725.3514" style="fill: none; stroke: #429cd6; stroke-miterlimit: 10;"/>
  <line x1="1300.7589" y1="10" x2="1300.7597" y2="0" style="fill: none; stroke: #429cd6; stroke-miterlimit: 10;"/>
  <line x1="1305.7647" y1="4.9975" x2="1295.7647" y2="4.9967" style="fill: none; stroke: #429cd6; stroke-miterlimit: 10;"/>
  <line x1="1300.675" y1="154.0959" x2="1300.6758" y2="144.0959" style="fill: none; stroke: #429cd6; stroke-miterlimit: 10;"/>
  <line x1="1305.6808" y1="149.0933" x2="1295.6808" y2="149.0925" style="fill: none; stroke: #429cd6; stroke-miterlimit: 10;"/>
  <line x1="1300.7417" y1="297.9898" x2="1300.7425" y2="287.9898" style="fill: none; stroke: #429cd6; stroke-miterlimit: 10;"/>
  <line x1="1305.7475" y1="292.9872" x2="1295.7475" y2="292.9864" style="fill: none; stroke: #429cd6; stroke-miterlimit: 10;"/>
  <line x1="1300.6578" y1="442.0856" x2="1300.6586" y2="432.0856" style="fill: none; stroke: #429cd6; stroke-miterlimit: 10;"/>
  <line x1="1305.6637" y1="437.083" x2="1295.6637" y2="437.0823" style="fill: none; stroke: #429cd6; stroke-miterlimit: 10;"/>
  <line x1="1300.7369" y1="585.9793" x2="1300.7377" y2="575.9793" style="fill: none; stroke: #429cd6; stroke-miterlimit: 10;"/>
  <line x1="1305.7428" y1="580.9767" x2="1295.7428" y2="580.9759" style="fill: none; stroke: #429cd6; stroke-miterlimit: 10;"/>
  <line x1="1300.6531" y1="730.0751" x2="1300.6538" y2="720.0751" style="fill: none; stroke: #429cd6; stroke-miterlimit: 10;"/>
  <line x1="1305.6589" y1="725.0725" x2="1295.6589" y2="725.0718" style="fill: none; stroke: #429cd6; stroke-miterlimit: 10;"/>
  <line x1="112.8816" y1="10.216" x2="112.8824" y2=".216" style="fill: none; stroke: #429cd6; stroke-miterlimit: 10;"/>
  <line x1="117.8875" y1="5.2134" x2="107.8875" y2="5.2126" style="fill: none; stroke: #429cd6; stroke-miterlimit: 10;"/>
  <line x1="112.7978" y1="154.3118" x2="112.7985" y2="144.3118" style="fill: none; stroke: #429cd6; stroke-miterlimit: 10;"/>
  <line x1="117.8036" y1="149.3093" x2="107.8036" y2="149.3085" style="fill: none; stroke: #429cd6; stroke-miterlimit: 10;"/>
  <line x1="112.8645" y1="298.2058" x2="112.8653" y2="288.2058" style="fill: none; stroke: #429cd6; stroke-miterlimit: 10;"/>
  <line x1="117.8703" y1="293.2032" x2="107.8703" y2="293.2024" style="fill: none; stroke: #429cd6; stroke-miterlimit: 10;"/>
  <line x1="112.7806" y1="442.3016" x2="112.7814" y2="432.3016" style="fill: none; stroke: #429cd6; stroke-miterlimit: 10;"/>
  <line x1="117.7864" y1="437.299" x2="107.7864" y2="437.2982" style="fill: none; stroke: #429cd6; stroke-miterlimit: 10;"/>
  <line x1="112.8597" y1="586.1953" x2="112.8605" y2="576.1953" style="fill: none; stroke: #429cd6; stroke-miterlimit: 10;"/>
  <line x1="117.8655" y1="581.1927" x2="107.8655" y2="581.1919" style="fill: none; stroke: #429cd6; stroke-miterlimit: 10;"/>
  <line x1="112.7758" y1="730.2911" x2="112.7766" y2="720.2911" style="fill: none; stroke: #429cd6; stroke-miterlimit: 10;"/>
  <line x1="117.7816" y1="725.2885" x2="107.7816" y2="725.2877" style="fill: none; stroke: #429cd6; stroke-miterlimit: 10;"/>
  <line x1="328.8904" y1="10.107" x2="328.8912" y2=".107" style="fill: none; stroke: #429cd6; stroke-miterlimit: 10;"/>
  <line x1="333.8962" y1="5.1044" x2="323.8962" y2="5.1036" style="fill: none; stroke: #429cd6; stroke-miterlimit: 10;"/>
  <line x1="328.8065" y1="154.2028" x2="328.8073" y2="144.2028" style="fill: none; stroke: #429cd6; stroke-miterlimit: 10;"/>
  <line x1="333.8123" y1="149.2003" x2="323.8123" y2="149.1995" style="fill: none; stroke: #429cd6; stroke-miterlimit: 10;"/>
  <line x1="328.8733" y1="298.0968" x2="328.8741" y2="288.0968" style="fill: none; stroke: #429cd6; stroke-miterlimit: 10;"/>
  <line x1="333.8791" y1="293.0942" x2="323.8791" y2="293.0934" style="fill: none; stroke: #429cd6; stroke-miterlimit: 10;"/>
  <line x1="328.7894" y1="442.1926" x2="328.7902" y2="432.1926" style="fill: none; stroke: #429cd6; stroke-miterlimit: 10;"/>
  <line x1="333.7952" y1="437.19" x2="323.7952" y2="437.1892" style="fill: none; stroke: #429cd6; stroke-miterlimit: 10;"/>
  <line x1="328.8685" y1="586.0863" x2="328.8693" y2="576.0863" style="fill: none; stroke: #429cd6; stroke-miterlimit: 10;"/>
  <line x1="333.8743" y1="581.0837" x2="323.8743" y2="581.0829" style="fill: none; stroke: #429cd6; stroke-miterlimit: 10;"/>
  <line x1="328.7846" y1="730.1821" x2="328.7854" y2="720.1821" style="fill: none; stroke: #429cd6; stroke-miterlimit: 10;"/>
  <line x1="333.7904" y1="725.1795" x2="323.7904" y2="725.1787" style="fill: none; stroke: #429cd6; stroke-miterlimit: 10;"/>
  <line x1="544.8046" y1="10.3015" x2="544.8053" y2=".3015" style="fill: none; stroke: #429cd6; stroke-miterlimit: 10;"/>
  <line x1="549.8104" y1="5.2989" x2="539.8104" y2="5.2981" style="fill: none; stroke: #429cd6; stroke-miterlimit: 10;"/>
  <line x1="544.7207" y1="154.3973" x2="544.7215" y2="144.3973" style="fill: none; stroke: #429cd6; stroke-miterlimit: 10;"/>
  <line x1="549.7265" y1="149.3947" x2="539.7265" y2="149.394" style="fill: none; stroke: #429cd6; stroke-miterlimit: 10;"/>
  <line x1="544.7874" y1="298.2913" x2="544.7882" y2="288.2913" style="fill: none; stroke: #429cd6; stroke-miterlimit: 10;"/>
  <line x1="549.7932" y1="293.2887" x2="539.7932" y2="293.2879" style="fill: none; stroke: #429cd6; stroke-miterlimit: 10;"/>
  <line x1="544.7035" y1="442.3871" x2="544.7043" y2="432.3871" style="fill: none; stroke: #429cd6; stroke-miterlimit: 10;"/>
  <line x1="549.7093" y1="437.3845" x2="539.7093" y2="437.3837" style="fill: none; stroke: #429cd6; stroke-miterlimit: 10;"/>
  <line x1="544.7826" y1="586.2808" x2="544.7834" y2="576.2808" style="fill: none; stroke: #429cd6; stroke-miterlimit: 10;"/>
  <line x1="549.7884" y1="581.2782" x2="539.7884" y2="581.2774" style="fill: none; stroke: #429cd6; stroke-miterlimit: 10;"/>
  <line x1="544.6987" y1="730.3766" x2="544.6995" y2="720.3766" style="fill: none; stroke: #429cd6; stroke-miterlimit: 10;"/>
  <line x1="549.7045" y1="725.374" x2="539.7045" y2="725.3732" style="fill: none; stroke: #429cd6; stroke-miterlimit: 10;"/>
  <line x1="760.7868" y1="10.1338" x2="760.7876" y2=".1338" style="fill: none; stroke: #429cd6; stroke-miterlimit: 10;"/>
  <line x1="765.7926" y1="5.1312" x2="755.7926" y2="5.1304" style="fill: none; stroke: #429cd6; stroke-miterlimit: 10;"/>
  <line x1="760.7029" y1="154.2296" x2="760.7037" y2="144.2296" style="fill: none; stroke: #429cd6; stroke-miterlimit: 10;"/>
  <line x1="765.7087" y1="149.2271" x2="755.7087" y2="149.2263" style="fill: none; stroke: #429cd6; stroke-miterlimit: 10;"/>
  <line x1="760.7696" y1="298.1236" x2="760.7704" y2="288.1236" style="fill: none; stroke: #429cd6; stroke-miterlimit: 10;"/>
  <line x1="765.7754" y1="293.121" x2="755.7754" y2="293.1202" style="fill: none; stroke: #429cd6; stroke-miterlimit: 10;"/>
  <line x1="760.6857" y1="442.2194" x2="760.6865" y2="432.2194" style="fill: none; stroke: #429cd6; stroke-miterlimit: 10;"/>
  <line x1="765.6915" y1="437.2168" x2="755.6915" y2="437.216" style="fill: none; stroke: #429cd6; stroke-miterlimit: 10;"/>
  <line x1="760.7648" y1="586.1131" x2="760.7656" y2="576.1131" style="fill: none; stroke: #429cd6; stroke-miterlimit: 10;"/>
  <line x1="765.7707" y1="581.1105" x2="755.7707" y2="581.1097" style="fill: none; stroke: #429cd6; stroke-miterlimit: 10;"/>
  <line x1="760.681" y1="730.2089" x2="760.6817" y2="720.2089" style="fill: none; stroke: #429cd6; stroke-miterlimit: 10;"/>
  <line x1="765.6868" y1="725.2063" x2="755.6868" y2="725.2055" style="fill: none; stroke: #429cd6; stroke-miterlimit: 10;"/>
  <line x1="976.8098" y1="10.2552" x2="976.8106" y2=".2552" style="fill: none; stroke: #429cd6; stroke-miterlimit: 10;"/>
  <line x1="981.8156" y1="5.2526" x2="971.8156" y2="5.2518" style="fill: none; stroke: #429cd6; stroke-miterlimit: 10;"/>
  <line x1="976.7259" y1="154.351" x2="976.7267" y2="144.351" style="fill: none; stroke: #429cd6; stroke-miterlimit: 10;"/>
  <line x1="981.7317" y1="149.3484" x2="971.7317" y2="149.3476" style="fill: none; stroke: #429cd6; stroke-miterlimit: 10;"/>
  <line x1="976.7927" y1="298.2449" x2="976.7935" y2="288.2449" style="fill: none; stroke: #429cd6; stroke-miterlimit: 10;"/>
  <line x1="981.7985" y1="293.2424" x2="971.7985" y2="293.2416" style="fill: none; stroke: #429cd6; stroke-miterlimit: 10;"/>
  <line x1="976.7088" y1="442.3407" x2="976.7096" y2="432.3407" style="fill: none; stroke: #429cd6; stroke-miterlimit: 10;"/>
  <line x1="981.7146" y1="437.3382" x2="971.7146" y2="437.3374" style="fill: none; stroke: #429cd6; stroke-miterlimit: 10;"/>
  <line x1="976.7879" y1="586.2344" x2="976.7887" y2="576.2344" style="fill: none; stroke: #429cd6; stroke-miterlimit: 10;"/>
  <line x1="981.7937" y1="581.2318" x2="971.7937" y2="581.2311" style="fill: none; stroke: #429cd6; stroke-miterlimit: 10;"/>
  <line x1="976.704" y1="730.3302" x2="976.7048" y2="720.3302" style="fill: none; stroke: #429cd6; stroke-miterlimit: 10;"/>
  <line x1="981.7098" y1="725.3277" x2="971.7098" y2="725.3269" style="fill: none; stroke: #429cd6; stroke-miterlimit: 10;"/>
  <line x1="1192.5844" y1="10.3814" x2="1192.5852" y2=".3814" style="fill: none; stroke: #429cd6; stroke-miterlimit: 10;"/>
  <line x1="1197.5902" y1="5.3789" x2="1187.5902" y2="5.3781" style="fill: none; stroke: #429cd6; stroke-miterlimit: 10;"/>
  <line x1="1192.5005" y1="154.4773" x2="1192.5013" y2="144.4773" style="fill: none; stroke: #429cd6; stroke-miterlimit: 10;"/>
  <line x1="1197.5063" y1="149.4747" x2="1187.5063" y2="149.4739" style="fill: none; stroke: #429cd6; stroke-miterlimit: 10;"/>
  <line x1="1192.5673" y1="298.3712" x2="1192.568" y2="288.3712" style="fill: none; stroke: #429cd6; stroke-miterlimit: 10;"/>
  <line x1="1197.5731" y1="293.3686" x2="1187.5731" y2="293.3678" style="fill: none; stroke: #429cd6; stroke-miterlimit: 10;"/>
  <line x1="1192.4834" y1="442.467" x2="1192.4841" y2="432.467" style="fill: none; stroke: #429cd6; stroke-miterlimit: 10;"/>
  <line x1="1197.4892" y1="437.4645" x2="1187.4892" y2="437.4637" style="fill: none; stroke: #429cd6; stroke-miterlimit: 10;"/>
  <line x1="1192.5625" y1="586.3607" x2="1192.5633" y2="576.3607" style="fill: none; stroke: #429cd6; stroke-miterlimit: 10;"/>
  <line x1="1197.5683" y1="581.3581" x2="1187.5683" y2="581.3573" style="fill: none; stroke: #429cd6; stroke-miterlimit: 10;"/>
  <line x1="1192.4786" y1="730.4565" x2="1192.4794" y2="720.4565" style="fill: none; stroke: #429cd6; stroke-miterlimit: 10;"/>
  <line x1="1197.4844" y1="725.454" x2="1187.4844" y2="725.4532" style="fill: none; stroke: #429cd6; stroke-miterlimit: 10;"/>
</svg>