<?xml version="1.0" encoding="UTF-8"?>
<svg id="Layer_1" data-name="Layer 1" xmlns="http://www.w3.org/2000/svg" viewBox="0 0 1305.7647 730.4371">
  <line x1="5.1001" y1="10.0316" x2="5.1008" y2=".0316" style="fill: none; stroke: #429cd6; stroke-miterlimit: 10;"/>
  <line x1="10.1059" y1="5.0291" x2=".1059" y2="5.0283" style="fill: none; stroke: #429cd6; stroke-miterlimit: 10;"/>
  <line x1="5.0162" y1="154.1274" x2="5.017" y2="144.1274" style="fill: none; stroke: #429cd6; stroke-miterlimit: 10;"/>
  <line x1="10.022" y1="149.1249" x2=".022" y2="149.1241" style="fill: none; stroke: #429cd6; stroke-miterlimit: 10;"/>
  <line x1="5.0829" y1="298.0214" x2="5.0837" y2="288.0214" style="fill: none; stroke: #429cd6; stroke-miterlimit: 10;"/>
  <line x1="10.0887" y1="293.0188" x2=".0887" y2="293.018" style="fill: none; stroke: #429cd6; stroke-miterlimit: 10;"/>
  <line x1="4.999" y1="442.1172" x2="4.9998" y2="432.1172" style="fill: none; stroke: #429cd6; stroke-miterlimit: 10;"/>
  <line x1="10.0048" y1="437.1146" x2=".0048" y2="437.1138" style="fill: none; stroke: #429cd6; stroke-miterlimit: 10;"/>
  <line x1="5.0781" y1="586.0109" x2="5.0789" y2="576.0109" style="fill: none; stroke: #429cd6; stroke-miterlimit: 10;"/>
  <line x1="10.0839" y1="581.0083" x2=".0839" y2="581.0075" style="fill: none; stroke: #429cd6; stroke-miterlimit: 10;"/>
  <line x1="4.9942" y1="730.1067" x2="4.995" y2="720.1067" style="fill: none; stroke: #429cd6; stroke-miterlimit: 10;"/>
  <line x1="10" y1="725.1041" x2="0" y2="725.1033" style="fill: none; stroke: #429cd6; stroke-miterlimit: 10;"/>
  <line x1="220.8197" y1="10.2389" x2="220.8205" y2=".2389" style="fill: none; stroke: #429cd6; stroke-miterlimit: 10;"/>
  <line x1="225.8255" y1="5.2363" x2="215.8255" y2="5.2355" style="fill: none; stroke: #429cd6; stroke-miterlimit: 10;"/>
  <line x1="220.7358" y1="154.3347" x2="220.7366" y2="144.3347" style="fill: none; stroke: #429cd6; stroke-miterlimit: 10;"/>
  <line x1="225.7416" y1="149.3322" x2="215.7416" y2="149.3314" style="fill: none; stroke: #429cd6; stroke-miterlimit: 10;"/>
  <line x1="220.8026" y1="298.2287" x2="220.8034" y2="288.2287" style="fill: none; stroke: #429cd6; stroke-miterlimit: 10;"/>
  <line x1="225.8084" y1="293.2261" x2="215.8084" y2="293.2253" style="fill: none; stroke: #429cd6; stroke-miterlimit: 10;"/>
  <line x1="220.7187" y1="442.3245" x2="220.7195" y2="432.3245" style="fill: none; stroke: #429cd6; stroke-miterlimit: 10;"/>
  <line x1="225.7245" y1="437.3219" x2="215.7245" y2="437.3211" style="fill: none; stroke: #429cd6; stroke-miterlimit: 10;"/>
  <line x1="220.7978" y1="586.2182" x2="220.7986" y2="576.2182" style="fill: none; stroke: #429cd6; stroke-miterlimit: 10;"/>
  <line x1="225.8036" y1="581.2156" x2="215.8036" y2="581.2148" style="fill: none; stroke: #429cd6; stroke-miterlimit: 10;"/>
  <line x1="220.7139" y1="730.314" x2="220.7147" y2="720.314" style="fill: none; stroke: #429cd6; stroke-miterlimit: 10;"/>
  <line x1="225.7197" y1="725.3114" x2="215.7197" y2="725.3106" style="fill: none; stroke: #429cd6; stroke-miterlimit: 10;"/>
  <line x1="436.6086" y1="10.1547" x2="436.6093" y2=".1547" style="fill: none; stroke: #429cd6; stroke-miterlimit: 10;"/>
  <line x1="441.6144" y1="5.1521" x2="431.6144" y2="5.1513" style="fill: none; stroke: #429cd6; stroke-miterlimit: 10;"/>
  <line x1="436.5247" y1="154.2505" x2="436.5255" y2="144.2505" style="fill: none; stroke: #429cd6; stroke-miterlimit: 10;"/>
  <line x1="441.5305" y1="149.2479" x2="431.5305" y2="149.2471" style="fill: none; stroke: #429cd6; stroke-miterlimit: 10;"/>
  <line x1="436.5914" y1="298.1444" x2="436.5922" y2="288.1444" style="fill: none; stroke: #429cd6; stroke-miterlimit: 10;"/>
  <line x1="441.5972" y1="293.1419" x2="431.5972" y2="293.1411" style="fill: none; stroke: #429cd6; stroke-miterlimit: 10;"/>
  <line x1="436.5075" y1="442.2402" x2="436.5083" y2="432.2402" style="fill: none; stroke: #429cd6; stroke-miterlimit: 10;"/>
  <line x1="441.5133" y1="437.2377" x2="431.5133" y2="437.2369" style="fill: none; stroke: #429cd6; stroke-miterlimit: 10;"/>
  <line x1="436.5866" y1="586.1339" x2="436.5874" y2="576.1339" style="fill: none; stroke: #429cd6; stroke-miterlimit: 10;"/>
  <line x1="441.5924" y1="581.1314" x2="431.5924" y2="581.1306" style="fill: none; stroke: #429cd6; stroke-miterlimit: 10;"/>
  <line x1="436.5027" y1="730.2297" x2="436.5035" y2="720.2297" style="fill: none; stroke: #429cd6; stroke-miterlimit: 10;"/>
  <line x1="441.5085" y1="725.2272" x2="431.5085" y2="725.2264" style="fill: none; stroke: #429cd6; stroke-miterlimit: 10;"/>
  <line x1="652.3282" y1="10.3619" x2="652.329" y2=".3619" style="fill: none; stroke: #429cd6; stroke-miterlimit: 10;"/>
  <line x1="657.334" y1="5.3594" x2="647.334" y2="5.3586" style="fill: none; stroke: #429cd6; stroke-miterlimit: 10;"/>
  <line x1="652.2443" y1="154.4578" x2="652.2451" y2="144.4578" style="fill: none; stroke: #429cd6; stroke-miterlimit: 10;"/>
  <line x1="657.2501" y1="149.4552" x2="647.2501" y2="149.4544" style="fill: none; stroke: #429cd6; stroke-miterlimit: 10;"/>
  <line x1="652.3111" y1="298.3517" x2="652.3119" y2="288.3517" style="fill: none; stroke: #429cd6; stroke-miterlimit: 10;"/>
  <line x1="657.3169" y1="293.3491" x2="647.3169" y2="293.3483" style="fill: none; stroke: #429cd6; stroke-miterlimit: 10;"/>
  <line x1="652.2272" y1="442.4475" x2="652.228" y2="432.4475" style="fill: none; stroke: #429cd6; stroke-miterlimit: 10;"/>
  <line x1="657.233" y1="437.4449" x2="647.233" y2="437.4442" style="fill: none; stroke: #429cd6; stroke-miterlimit: 10;"/>
  <line x1="652.3063" y1="586.3412" x2="652.3071" y2="576.3412" style="fill: none; stroke: #429cd6; stroke-miterlimit: 10;"/>
  <line x1="657.3121" y1="581.3386" x2="647.3121" y2="581.3378" style="fill: none; stroke: #429cd6; stroke-miterlimit: 10;"/>
  <line x1="652.2224" y1="730.437" x2="652.2232" y2="720.437" style="fill: none; stroke: #429cd6; stroke-miterlimit: 10;"/>
  <line x1="657.2282" y1="725.4344" x2="647.2282" y2="725.4337" style="fill: none; stroke: #429cd6; stroke-miterlimit: 10;"/>
  <line x1="868.6941" y1="10.0724" x2="868.6949" y2=".0724" style="fill: none; stroke: #429cd6; stroke-miterlimit: 10;"/>
  <line x1="873.6999" y1="5.0699" x2="863.6999" y2="5.0691" style="fill: none; stroke: #429cd6; stroke-miterlimit: 10;"/>
  <line x1="868.6102" y1="154.1683" x2="868.611" y2="144.1683" style="fill: none; stroke: #429cd6; stroke-miterlimit: 10;"/>
  <line x1="873.616" y1="149.1657" x2="863.616" y2="149.1649" style="fill: none; stroke: #429cd6; stroke-miterlimit: 10;"/>
  <line x1="868.677" y1="298.0622" x2="868.6777" y2="288.0622" style="fill: none; stroke: #429cd6; stroke-miterlimit: 10;"/>
  <line x1="873.6828" y1="293.0596" x2="863.6828" y2="293.0588" style="fill: none; stroke: #429cd6; stroke-miterlimit: 10;"/>
  <line x1="868.5931" y1="442.158" x2="868.5939" y2="432.158" style="fill: none; stroke: #429cd6; stroke-miterlimit: 10;"/>
  <line x1="873.5989" y1="437.1555" x2="863.5989" y2="437.1547" style="fill: none; stroke: #429cd6; stroke-miterlimit: 10;"/>
  <line x1="868.6722" y1="586.0517" x2="868.673" y2="576.0517" style="fill: none; stroke: #429cd6; stroke-miterlimit: 10;"/>
  <line x1="873.678" y1="581.0491" x2="863.678" y2="581.0483" style="fill: none; stroke: #429cd6; stroke-miterlimit: 10;"/>
  <line x1="868.5883" y1="730.1475" x2="868.5891" y2="720.1475" style="fill: none; stroke: #429cd6; stroke-miterlimit: 10;"/>
  <line x1="873.5941" y1="725.145" x2="863.5941" y2="725.1442" style="fill: none; stroke: #429cd6; stroke-miterlimit: 10;"/>
  <line x1="1084.4137" y1="10.2797" x2="1084.4145" y2=".2797" style="fill: none; stroke: #429cd6; stroke-miterlimit: 10;"/>
  <line x1="1089.4195" y1="5.2772" x2="1079.4195" y2="5.2764" style="fill: none; stroke: #429cd6; stroke-miterlimit: 10;"/>
  <line x1="1084.3298" y1="154.3755" x2="1084.3306" y2="144.3755" style="fill: none; stroke: #429cd6; stroke-miterlimit: 10;"/>
  <line x1="1089.3357" y1="149.373" x2="1079.3357" y2="149.3722" style="fill: none; stroke: #429cd6; stroke-miterlimit: 10;"/>
  <line x1="1084.3966" y1="298.2695" x2="1084.3974" y2="288.2695" style="fill: none; stroke: #429cd6; stroke-miterlimit: 10;"/>
  <line x1="1089.4024" y1="293.2669" x2="1079.4024" y2="293.2661" style="fill: none; stroke: #429cd6; stroke-miterlimit: 10;"/>
  <line x1="1084.3127" y1="442.3653" x2="1084.3135" y2="432.3653" style="fill: none; stroke: #429cd6; stroke-miterlimit: 10;"/>
  <line x1="1089.3185" y1="437.3627" x2="1079.3185" y2="437.3619" style="fill: none; stroke: #429cd6; stroke-miterlimit: 10;"/>
  <line x1="1084.3918" y1="586.259" x2="1084.3926" y2="576.259" style="fill: none; stroke: #429cd6; stroke-miterlimit: 10;"/>
  <line x1="1089.3976" y1="581.2564" x2="1079.3976" y2="581.2556" style="fill: none; stroke: #429cd6; stroke-miterlimit: 10;"/>
  <line x1="1084.3079" y1="730.3548" x2="1084.3087" y2="720.3548" style="fill: none; stroke: #429cd6; stroke-miterlimit: 10;"/>
  <line x1="1089.3137" y1="725.3522" x2="1079.3137" y2="725.3514" style="fill: none; stroke: #429cd6; stroke-miterlimit: 10;"/>
  <line x1="1300.7589" y1="10" x2="1300.7597" y2="0" style="fill: none; stroke: #429cd6; stroke-miterlimit: 10;"/>
  <line x1="1305.7647" y1="4.9975" x2="1295.7647" y2="4.9967" style="fill: none; stroke: #429cd6; stroke-miterlimit: 10;"/>
  <line x1="1300.675" y1="154.0959" x2="1300.6758" y2="144.0959" style="fill: none; stroke: #429cd6; stroke-miterlimit: 10;"/>
  <line x1="1305.6808" y1="149.0933" x2="1295.6808" y2="149.0925" style="fill: none; stroke: #429cd6; stroke-miterlimit: 10;"/>
  <line x1="1300.7417" y1="297.9898" x2="1300.7425" y2="287.9898" style="fill: none; stroke: #429cd6; stroke-miterlimit: 10;"/>
  <line x1="1305.7475" y1="292.9872" x2="1295.7475" y2="292.9864" style="fill: none; stroke: #429cd6; stroke-miterlimit: 10;"/>
  <line x1="1300.6578" y1="442.0856" x2="1300.6586" y2="432.0856" style="fill: none; stroke: #429cd6; stroke-miterlimit: 10;"/>
  <line x1="1305.6637" y1="437.083" x2="1295.6637" y2="437.0823" style="fill: none; stroke: #429cd6; stroke-miterlimit: 10;"/>
  <line x1="1300.7369" y1="585.9793" x2="1300.7377" y2="575.9793" style="fill: none; stroke: #429cd6; stroke-miterlimit: 10;"/>
  <line x1="1305.7428" y1="580.9767" x2="1295.7428" y2="580.9759" style="fill: none; stroke: #429cd6; stroke-miterlimit: 10;"/>
  <line x1="1300.6531" y1="730.0751" x2="1300.6538" y2="720.0751" style="fill: none; stroke: #429cd6; stroke-miterlimit: 10;"/>
  <line x1="1305.6589" y1="725.0725" x2="1295.6589" y2="725.0718" style="fill: none; stroke: #429cd6; stroke-miterlimit: 10;"/>
</svg>